<svg xmlns="http://www.w3.org/2000/svg" id="Group_3269" data-name="Group 3269" width="85.761" height="72.026" viewBox="0 0 85.761 72.026">
  <path id="Path_316" data-name="Path 316" d="M-785.434,41h-5.025a5.025,5.025,0,0,0-5.025,5.025h15.075A5.025,5.025,0,0,0-785.434,41Z" transform="translate(802.352 -41)" fill="#cb352e"/>
  <path id="Path_317" data-name="Path 317" d="M-759.936,51.05h-16.782l-1.632-4.9A7.528,7.528,0,0,0-785.5,41h-16.206a7.528,7.528,0,0,0-7.151,5.154l-1.632,4.9h-16.782a9.223,9.223,0,0,0-9.213,9.213v43.551a9.223,9.223,0,0,0,9.213,9.213h67.336a9.223,9.223,0,0,0,9.213-9.213V60.263A9.223,9.223,0,0,0-759.936,51.05Zm-68.006,9.213a2.513,2.513,0,0,1,2.513-2.513h5.025a2.513,2.513,0,0,1,2.513,2.513,2.513,2.513,0,0,1-2.513,2.513h-5.025A2.513,2.513,0,0,1-827.941,60.263Zm34.338,44.388a24.315,24.315,0,0,1-24.288-24.288A24.315,24.315,0,0,1-793.6,56.075a24.315,24.315,0,0,1,24.288,24.288A24.315,24.315,0,0,1-793.6,104.651Zm30.15-41.876a2.513,2.513,0,0,1-2.513-2.513,2.513,2.513,0,0,1,2.513-2.513,2.513,2.513,0,0,1,2.512,2.513A2.513,2.513,0,0,1-763.453,62.775Z" transform="translate(836.484 -41)" fill="#cb352e"/>
  <path id="Path_318" data-name="Path 318" d="M-676.221,161a19.285,19.285,0,0,0-19.263,19.263,19.285,19.285,0,0,0,19.263,19.263,19.285,19.285,0,0,0,19.263-19.263A19.285,19.285,0,0,0-676.221,161Zm0,32.663a13.415,13.415,0,0,1-13.4-13.4,13.415,13.415,0,0,1,13.4-13.4,13.415,13.415,0,0,1,13.4,13.4A13.415,13.415,0,0,1-676.221,193.663Z" transform="translate(719.102 -140.9)" fill="#cb352e"/>
  <circle id="Ellipse_2" data-name="Ellipse 2" cx="8.311" cy="8.311" r="8.311" transform="translate(34.57 30.473)" fill="#cb352e"/>
</svg>